<svg xmlns="http://www.w3.org/2000/svg" viewBox="0 0 200 200"><defs><style>.cls-1{fill:#eeeeee;}</style></defs><g id="Layer_2" data-name="Layer 2"><g id="Layer_1-2" data-name="Layer 1"><path class="cls-1" d="M100,0A100,100,0,1,0,200,100,100.11,100.11,0,0,0,100,0Zm0,194.17a93.63,93.63,0,0,1-37.28-7.69,100,100,0,0,0,15.42-29c6.18-18.32,9.65-47.07-8.92-80l-5.08,2.85c14,24.9,16.9,50.16,8.56,75.1a94.5,94.5,0,0,1-15.4,28.5A94.15,94.15,0,1,1,100,194.17Zm9.76-153.84c1.85,35.13,1.85,35.13-6.62,78.89l-.28,1.45c-8.63,44.59-2.24,67.22-2.17,67.44l-5.59,1.66c-.28-1-6.9-24,2-70.21l.28-1.45c8.34-43,8.34-43,6.52-77.47l-.15-2.81,5.82-.31ZM141.42,80c-12.5,31.67-11.9,57-9.2,72.69,2.93,17,8.9,26.64,9,26.74l-4.93,3.11c-1.05-1.66-25.31-41.2-.25-104.68ZM83.33,30.28l5.12,2.79A34.83,34.83,0,0,1,75.34,47,33.49,33.49,0,0,1,63,51c-3.08.5-5.52.9-7.7,2.6C51,56.9,49.23,64,50,74.69l-5.81.41C43.28,62.36,45.8,53.57,51.68,49c3.37-2.62,6.92-3.2,10.36-3.76A27.85,27.85,0,0,0,72.43,42,29.1,29.1,0,0,0,83.33,30.28Zm67.48,26.18c4.67,4.82,6.42,12.49,5.2,22.78l-5.78-.69c1-8.47-.21-14.53-3.61-18a15.81,15.81,0,0,0-5.74-3.43,24.61,24.61,0,0,1-8.61-5.32c-4.09-4-6.61-9.59-7.47-16.52l5.77-.73c.71,5.6,2.65,10,5.79,13.1a19.19,19.19,0,0,0,6.77,4.1A20.8,20.8,0,0,1,150.81,56.46Z"/></g></g></svg>